<mxfile host="app.diagrams.net" modified="2023-05-31T13:49:31.006Z" agent="Mozilla/5.0 (Windows NT 10.0; WOW64) AppleWebKit/537.36 (KHTML, like Gecko) coc_coc_browser/95.0.150 Chrome/89.0.4389.150 Safari/537.36" version="21.3.6" etag="xVfLsvqQ9pbEDKRpZiEP" type="github">
  <diagram name="Trang-1" id="zQe6rL0zUHSo05FoHguY">
    <mxGraphModel>
      <root>
        <mxCell id="0" />
        <mxCell id="1" parent="0" />
      </root>
    </mxGraphModel>
  </diagram>
</mxfile>
